# Blender 4.0.2
# www.blender.org
mtllib fish6.mtl
o Plane
v 0.416356 0.000000 0.656298
v 1.100000 0.000000 0.000000
v 0.744505 0.000000 0.371902
v 0.924987 0.000000 0.131260
v -0.092275 0.000000 0.864126
v -0.469646 0.000000 1.028200
v -0.967339 0.000000 1.246966
v -1.317365 0.000000 1.629807
v -0.754042 0.000000 1.367288
v -0.950932 0.000000 0.978978
v -1.656452 0.000002 0.634421
v -2.192429 0.000002 0.125790
v -2.367442 0.000002 0.164074
v -3.122185 0.000002 0.962570
v -2.897949 0.000002 0.448470
v -2.783097 0.000002 -0.010938
v -2.936233 0.000002 -0.503162
v -3.182345 0.000002 -1.000855
v -2.739344 0.000002 -0.683644
v -2.340096 0.000002 -0.224235
v -2.208836 0.000002 -0.158605
v -2.165083 0.000002 -0.322680
v -1.246266 -0.000000 -1.307127
v -0.972808 -0.000000 -1.427448
v -0.715758 -0.000000 -1.493078
v 0.104615 -0.000000 -1.219621
v 0.832012 -0.000000 -0.453940
v 1.083593 -0.000000 -0.235174
v 0.930456 -0.000000 -0.169544
v 0.930456 -0.000000 -0.169544
v -0.967339 0.000000 1.246966
v 0.516778 0.336732 -0.000000
v -0.263346 0.641188 -0.000000
v -1.471246 0.517766 -0.000000
v -2.369831 0.102842 -0.000000
v 0.516778 0.336732 -0.000000
v -0.088198 0.192370 0.656298
v -1.321423 0.190102 0.656298
v -0.535183 0.962364 0.336471
v -1.084300 1.039690 0.581003
v -0.733089 0.926002 0.237758
v -0.462409 0.500358 -0.131351
v -0.847251 0.152468 -1.856861
v -1.318124 0.461976 -2.235492
v -1.344180 0.352910 -2.094433
v -1.294560 0.232616 -1.879133
v -2.197789 0.000002 -0.000000
v -2.220799 0.000002 -0.000000
v -2.172973 0.000002 0.026716
v 0.516778 -0.336732 0.000000
v -0.263346 -0.641188 0.000000
v -1.471246 -0.517764 0.000000
v -2.369831 -0.102838 0.000000
v 0.516778 -0.336732 0.000000
v -0.088198 -0.192368 0.656298
v -1.321423 -0.190100 0.656298
v -0.535183 -0.962364 0.336471
v -1.084300 -1.039688 0.581003
v -0.733089 -0.926000 0.237758
v -0.462409 -0.500356 -0.131351
v -0.847251 -0.152466 -1.856861
v -1.318124 -0.461974 -2.235492
v -1.344180 -0.352908 -2.094433
v -1.294560 -0.232614 -1.879133
vn -0.2396 0.9690 -0.0599
vn 0.2724 0.8171 0.5082
vn -0.0000 1.0000 -0.0000
vn 0.3915 0.8550 -0.3402
vn -0.2411 0.9704 -0.0157
vn -0.2411 -0.9704 -0.0157
vn -0.0000 -1.0000 -0.0000
vn 0.3915 -0.8550 -0.3402
vn -0.5799 0.8137 0.0404
vn -0.5472 0.8242 -0.1459
vn -0.4239 0.8147 -0.3957
vn -0.1422 -0.8932 0.4267
vn 0.0941 -0.9248 0.3686
vn -0.1708 0.9056 -0.3881
vn -0.0945 0.9248 -0.3685
vn -0.3634 -0.8653 0.3453
vn -0.3329 -0.8531 0.4016
vn -0.5691 -0.7983 0.1970
vn -0.4472 -0.7746 0.4472
vn -0.4160 -0.7206 -0.5547
vn -0.5112 -0.7692 -0.3834
vn -0.3199 -0.8197 -0.4752
vn -0.4037 -0.7874 -0.4658
vn -0.3143 -0.8243 -0.4710
vn -0.2685 -0.7043 -0.6572
vn -0.2844 -0.7008 -0.6542
vn 0.0016 -0.8889 -0.4581
vn 0.0567 -0.8304 -0.5543
vn 0.3646 -0.5566 -0.7465
vn -0.0830 0.8121 0.5775
vn 0.0016 -0.8945 -0.4470
vn 0.2724 -0.8171 0.5082
vn -0.2396 -0.9690 -0.0599
vn 0.0116 -0.9456 0.3251
vn -0.1617 -0.7758 0.6099
vn -0.0239 -0.6636 0.7477
vn -0.0911 -0.9297 -0.3568
vn -0.1461 -0.9180 -0.3687
vn 0.0244 0.7887 0.6143
vn -0.1344 -0.8779 -0.4595
vn -0.5109 0.7168 0.4745
vn -0.5799 -0.8137 0.0404
vn 0.5437 0.7879 -0.2892
vn 0.5064 0.7339 0.4526
vn 0.4718 -0.7853 -0.4010
vn -0.5472 -0.8242 -0.1459
vn -0.4239 -0.8147 -0.3957
vn -0.1422 0.8932 0.4267
vn 0.0941 0.9248 0.3686
vn -0.1708 -0.9056 -0.3881
vn -0.0945 -0.9248 -0.3685
vn -0.3634 0.8653 0.3453
vn -0.3329 0.8531 0.4016
vn -0.5691 0.7983 0.1970
vn -0.4472 0.7746 0.4472
vn -0.4160 0.7206 -0.5547
vn -0.5112 0.7692 -0.3834
vn -0.3199 0.8197 -0.4752
vn -0.4037 0.7874 -0.4658
vn -0.3143 0.8243 -0.4710
vn -0.2685 0.7043 -0.6572
vn -0.2844 0.7008 -0.6542
vn 0.0016 0.8889 -0.4581
vn 0.0567 0.8304 -0.5543
vn 0.3646 0.5566 -0.7465
vn -0.0830 -0.8121 0.5775
vn 0.0016 0.8945 -0.4470
vn 0.0116 0.9456 0.3251
vn -0.1617 0.7758 0.6099
vn -0.0239 0.6636 0.7477
vn -0.0911 0.9298 -0.3567
vn -0.1461 0.9180 -0.3687
vn 0.0244 -0.7887 0.6143
vn -0.1344 0.8779 -0.4595
vn -0.5109 -0.7168 0.4745
vn 0.5437 -0.7879 -0.2892
vn 0.5064 -0.7339 0.4526
vn 0.4718 0.7853 -0.4010
vt 0.000000 0.000000
s 0
f 16/1/1 15/1/1 35/1/1
f 15/1/2 13/1/2 35/1/2
f 14/1/3 13/1/3 15/1/3
f 20/1/4 19/1/4 35/1/4
f 35/1/5 19/1/5 16/1/5
f 17/1/3 16/1/3 19/1/3
f 18/1/3 17/1/3 19/1/3
f 53/1/6 16/1/6 19/1/6
f 48/1/7 20/1/7 21/1/7
f 20/1/8 53/1/8 19/1/8
f 47/1/9 34/1/9 21/1/9
f 21/1/10 34/1/10 22/1/10
f 23/1/11 22/1/11 34/1/11
f 26/1/12 33/1/12 25/1/12
f 25/1/13 33/1/13 24/1/13
f 24/1/14 23/1/14 34/1/14
f 33/1/15 24/1/15 34/1/15
f 27/1/16 33/1/16 26/1/16
f 36/1/17 33/1/17 27/1/17
f 30/1/7 27/1/7 28/1/7
f 27/1/18 30/1/18 36/1/18
f 30/1/19 2/1/19 36/1/19
f 4/1/20 36/1/20 2/1/20
f 3/1/21 36/1/21 4/1/21
f 36/1/22 37/1/22 33/1/22
f 1/1/23 36/1/23 3/1/23
f 37/1/24 36/1/24 1/1/24
f 5/1/25 37/1/25 1/1/25
f 6/1/26 37/1/26 5/1/26
f 37/1/27 6/1/27 38/1/27
f 6/1/28 10/1/28 38/1/28
f 11/1/29 38/1/29 10/1/29
f 34/1/30 37/1/30 33/1/30
f 37/1/31 38/1/31 34/1/31
f 47/1/3 21/1/3 48/1/3
f 15/1/32 53/1/32 13/1/32
f 16/1/33 53/1/33 15/1/33
f 9/1/7 10/1/7 6/1/7
f 10/1/7 9/1/7 31/1/7
f 9/1/7 8/1/7 31/1/7
f 40/1/34 41/1/34 39/1/34
f 39/1/35 41/1/35 33/1/35
f 41/1/36 42/1/36 33/1/36
f 25/1/37 24/1/37 43/1/37
f 46/1/38 43/1/38 24/1/38
f 44/1/39 45/1/39 43/1/39
f 45/1/40 43/1/40 46/1/40
f 34/1/41 47/1/41 49/1/41 38/1/41
f 47/1/42 21/1/42 52/1/42
f 35/1/43 48/1/43 20/1/43
f 35/1/44 13/1/44 48/1/44
f 38/1/45 11/1/45 49/1/45
f 21/1/46 22/1/46 52/1/46
f 23/1/47 52/1/47 22/1/47
f 26/1/48 25/1/48 51/1/48
f 25/1/49 24/1/49 51/1/49
f 24/1/50 52/1/50 23/1/50
f 51/1/51 52/1/51 24/1/51
f 27/1/52 26/1/52 51/1/52
f 54/1/53 27/1/53 51/1/53
f 48/1/7 12/1/7 13/1/7
f 27/1/54 54/1/54 30/1/54
f 30/1/55 54/1/55 2/1/55
f 4/1/56 2/1/56 54/1/56
f 3/1/57 4/1/57 54/1/57
f 54/1/58 51/1/58 55/1/58
f 1/1/59 3/1/59 54/1/59
f 55/1/60 1/1/60 54/1/60
f 5/1/61 1/1/61 55/1/61
f 6/1/62 5/1/62 55/1/62
f 55/1/63 56/1/63 6/1/63
f 6/1/64 56/1/64 10/1/64
f 11/1/65 10/1/65 56/1/65
f 52/1/66 51/1/66 55/1/66
f 55/1/67 52/1/67 56/1/67
f 12/1/3 47/1/3 48/1/3
f 47/1/3 12/1/3 49/1/3
f 11/1/3 49/1/3 12/1/3
f 58/1/68 57/1/68 59/1/68
f 57/1/69 51/1/69 59/1/69
f 59/1/70 51/1/70 60/1/70
f 25/1/71 61/1/71 24/1/71
f 64/1/72 24/1/72 61/1/72
f 62/1/73 61/1/73 63/1/73
f 63/1/74 64/1/74 61/1/74
f 52/1/75 56/1/75 49/1/75 47/1/75
f 53/1/76 20/1/76 48/1/76
f 53/1/77 48/1/77 13/1/77
f 56/1/78 49/1/78 11/1/78
l 8 7
l 29 30
l 7 31
l 28 29
l 2 32
l 32 33
l 32 36
l 2 50
l 50 51
l 50 54
